<svg width="41" height="89" fill="none" xmlns="http://www.w3.org/2000/svg"><circle cx="38.9138" cy="87.4849" r="1.4202" transform="rotate(180 38.9138 87.4849)" fill="#3056D3"/><circle cx="38.9138" cy="74.9871" r="1.4202" transform="rotate(180 38.9138 74.9871)" fill="#3056D3"/><circle cx="38.9138" cy="62.4892" r="1.4202" transform="rotate(180 38.9138 62.4892)" fill="#3056D3"/><circle cx="38.9138" cy="38.3457" r="1.4202" transform="rotate(180 38.9138 38.3457)" fill="#3056D3"/><circle cx="38.9138" cy="13.634" r="1.4202" transform="rotate(180 38.9138 13.634)" fill="#3056D3"/><circle cx="38.9138" cy="50.2754" r="1.4202" transform="rotate(180 38.9138 50.2754)" fill="#3056D3"/><circle cx="38.9138" cy="26.1319" r="1.4202" transform="rotate(180 38.9138 26.1319)" fill="#3056D3"/><circle cx="38.9138" cy="1.4202" r="1.4202" transform="rotate(180 38.9138 1.4202)" fill="#3056D3"/><circle cx="26.4157" cy="87.4849" r="1.4202" transform="rotate(180 26.4157 87.4849)" fill="#3056D3"/><circle cx="26.4157" cy="74.9871" r="1.4202" transform="rotate(180 26.4157 74.9871)" fill="#3056D3"/><circle cx="26.4157" cy="62.4892" r="1.4202" transform="rotate(180 26.4157 62.4892)" fill="#3056D3"/><circle cx="26.4157" cy="38.3457" r="1.4202" transform="rotate(180 26.4157 38.3457)" fill="#3056D3"/><circle cx="26.4157" cy="13.634" r="1.4202" transform="rotate(180 26.4157 13.634)" fill="#3056D3"/><circle cx="26.4157" cy="50.2754" r="1.4202" transform="rotate(180 26.4157 50.2754)" fill="#3056D3"/><circle cx="26.4157" cy="26.1319" r="1.4202" transform="rotate(180 26.4157 26.1319)" fill="#3056D3"/><circle cx="26.4157" cy="1.4202" r="1.4202" transform="rotate(180 26.4157 1.4202)" fill="#3056D3"/><circle cx="13.9177" cy="87.4849" r="1.4202" transform="rotate(180 13.9177 87.4849)" fill="#3056D3"/><circle cx="13.9177" cy="74.9871" r="1.4202" transform="rotate(180 13.9177 74.9871)" fill="#3056D3"/><circle cx="13.9177" cy="62.4892" r="1.4202" transform="rotate(180 13.9177 62.4892)" fill="#3056D3"/><circle cx="13.9177" cy="38.3457" r="1.4202" transform="rotate(180 13.9177 38.3457)" fill="#3056D3"/><circle cx="13.9177" cy="13.634" r="1.4202" transform="rotate(180 13.9177 13.634)" fill="#3056D3"/><circle cx="13.9177" cy="50.2754" r="1.4202" transform="rotate(180 13.9177 50.2754)" fill="#3056D3"/><circle cx="13.9177" cy="26.1319" r="1.4202" transform="rotate(180 13.9177 26.1319)" fill="#3056D3"/><circle cx="13.9177" cy="1.4202" r="1.4202" transform="rotate(180 13.9177 1.4202)" fill="#3056D3"/><circle cx="1.4196" cy="87.4849" r="1.4202" transform="rotate(180 1.4196 87.4849)" fill="#3056D3"/><circle cx="1.4196" cy="74.9871" r="1.4202" transform="rotate(180 1.4196 74.9871)" fill="#3056D3"/><circle cx="1.4196" cy="62.4892" r="1.4202" transform="rotate(180 1.4196 62.4892)" fill="#3056D3"/><circle cx="1.4196" cy="38.3457" r="1.4202" transform="rotate(180 1.4196 38.3457)" fill="#3056D3"/><circle cx="1.4196" cy="13.634" r="1.4202" transform="rotate(180 1.4196 13.634)" fill="#3056D3"/><circle cx="1.4196" cy="50.2754" r="1.4202" transform="rotate(180 1.4196 50.2754)" fill="#3056D3"/><circle cx="1.4196" cy="26.1319" r="1.4202" transform="rotate(180 1.4196 26.1319)" fill="#3056D3"/><circle cx="1.4196" cy="1.4202" r="1.4202" transform="rotate(180 1.4196 1.4202)" fill="#3056D3"/></svg>