<svg id="visual" viewBox="0 0 1400 900" width="1400" height="900" xmlns="http://www.w3.org/2000/svg" xmlns:xlink="http://www.w3.org/1999/xlink" version="1.1"><path d="M0 605L29.2 625C58.3 645 116.7 685 175 681.2C233.3 677.3 291.7 629.7 350 605.8C408.3 582 466.7 582 525 595.2C583.3 608.3 641.7 634.7 700 636.5C758.3 638.3 816.7 615.7 875 593.2C933.3 570.7 991.7 548.3 1050 569.8C1108.3 591.3 1166.7 656.7 1225 672.3C1283.3 688 1341.7 654 1370.8 637L1400 620L1400 901L1370.8 901C1341.7 901 1283.3 901 1225 901C1166.7 901 1108.3 901 1050 901C991.7 901 933.3 901 875 901C816.7 901 758.3 901 700 901C641.7 901 583.3 901 525 901C466.7 901 408.3 901 350 901C291.7 901 233.3 901 175 901C116.7 901 58.3 901 29.2 901L0 901Z" fill="#d8f3ff" stroke-linecap="round" stroke-linejoin="miter"></path></svg>